# xmcd CD database file
#
# Track frame offsets:
#	150
#	26662
#	44388
#	74907
#	92961
#	123306
#	150289
#	167655
#	188182
#	217971
#	236593
#	266209
#	289758
#
# Disc length: 4205 seconds
#
# Revision: 0
# Processed by: cddbd v1.5.1PL2 Copyright (c) Steve Scherf et al.
# Submitted via: CDex 1.51
#
DISCID=be106b0d
DTITLE=Jerzy Tatarak - Ilu masz przyjació³
DYEAR=1900
DGENRE=Jazz
TTITLE0=Ain't misbeahavin'
TTITLE1=Everything happend to me
TTITLE2=Secret love
TTITLE3=Ilu masz przyjació³
TTITLE4=I should care
TTITLE5=Poor butterfly
TTITLE6=Softly
TTITLE7=Deep purple
TTITLE8=Georgia
TTITLE9=I can't give you
TTITLE10=I surrender dear
TTITLE11=Sentimental journey
TTITLE12=White Christmas
EXTD=
EXTT0=
EXTT1=
EXTT2=
EXTT3=
EXTT4=
EXTT5=
EXTT6=
EXTT7=
EXTT8=
EXTT9=
EXTT10=
EXTT11=
EXTT12=
PLAYORDER=
